<svg width="76" height="76" viewBox="0 0 76 76" fill="#FFECE7" xmlns="http://www.w3.org/2000/svg">
<path opacity="0.5" d="M69.25 50.4994V47.3744C69.25 38.5356 69.2494 34.1175 66.5034 31.3716C63.7575 28.6257 59.3381 28.6257 50.4994 28.6257H25.4993C16.6605 28.6257 12.241 28.6257 9.49516 31.3716C6.75 34.1169 6.75 38.5331 6.75 47.3675V47.3744V50.4994C6.75 59.3381 6.75 63.7575 9.49587 66.5034C12.2417 69.2494 16.6612 69.2494 25.5 69.2494H50.5C59.3387 69.2494 63.7581 69.2494 66.5041 66.5034C69.25 63.7575 69.25 59.3381 69.25 50.4994Z"/>
<path fill-rule="evenodd" clip-rule="evenodd" d="M38 49.7188C39.2944 49.7188 40.3438 48.6694 40.3438 47.375V13.0858L45.5956 19.2128C46.4378 20.1956 47.9175 20.3094 48.9003 19.467C49.8831 18.6246 49.9969 17.145 49.1547 16.1622L39.7797 5.22472C39.3344 4.70522 38.6844 4.40625 38 4.40625C37.3159 4.40625 36.6659 4.70522 36.2206 5.22472L26.8455 16.1622C26.0031 17.145 26.117 18.6246 27.0998 19.467C28.0825 20.3094 29.5622 20.1956 30.4046 19.2128L35.6563 13.0858V47.375C35.6563 48.6694 36.7056 49.7188 38 49.7188Z"/>
</svg>
